HIERARCHY
ROOT Hips
{
	OFFSET 0.00000 0.00000 0.00000
	CHANNELS 6 Xposition Yposition Zposition Zrotation Yrotation Xrotation 
	JOINT LHipJoint
	{
		OFFSET 0 0 0
		CHANNELS 3 Zrotation Yrotation Xrotation
		JOINT LeftUpLeg
		{
			OFFSET 1.73240 -1.89999 0.57994
			CHANNELS 3 Zrotation Yrotation Xrotation
			JOINT LeftLeg
			{
				OFFSET 2.43106 -6.67930 0.00000
				CHANNELS 3 Zrotation Yrotation Xrotation
				JOINT LeftFoot
				{
					OFFSET 2.78854 -7.66147 0.00000
					CHANNELS 3 Zrotation Yrotation Xrotation
					JOINT LeftToeBase
					{
						OFFSET 0.17314 -0.47571 2.01064
						CHANNELS 3 Zrotation Yrotation Xrotation
						End Site
						{
							OFFSET 0.00000 -0.00000 1.04147
						}
					}
				}
			}
		}
	}
	JOINT RHipJoint
	{
		OFFSET 0 0 0
		CHANNELS 3 Zrotation Yrotation Xrotation
		JOINT RightUpLeg
		{
			OFFSET -1.57078 -1.89998 0.57994
			CHANNELS 3 Zrotation Yrotation Xrotation
			JOINT RightLeg
			{
				OFFSET -2.50166 -6.87326 0.00000
				CHANNELS 3 Zrotation Yrotation Xrotation
				JOINT RightFoot
				{
					OFFSET -2.77304 -7.61886 0.00000
					CHANNELS 3 Zrotation Yrotation Xrotation
					JOINT RightToeBase
					{
						OFFSET -0.23513 -0.64602 2.11039
						CHANNELS 3 Zrotation Yrotation Xrotation
						End Site
						{
							OFFSET -0.00000 -0.00000 1.10597
						}
					}
				}
			}
		}
	}
	JOINT LowerBack
	{
		OFFSET 0 0 0
		CHANNELS 3 Zrotation Yrotation Xrotation
		JOINT Spine
		{
			OFFSET -0.00908 2.00015 -0.35323
			CHANNELS 3 Zrotation Yrotation Xrotation
			JOINT Spine1
			{
				OFFSET 0.05647 2.02258 0.04270
				CHANNELS 3 Zrotation Yrotation Xrotation
				JOINT Neck
				{
					OFFSET 0 0 0
					CHANNELS 3 Zrotation Yrotation Xrotation
					JOINT Neck1
					{
						OFFSET -0.02074 1.73711 0.13117
						CHANNELS 3 Zrotation Yrotation Xrotation
						JOINT Head
						{
							OFFSET -0.02359 1.73615 -0.24320
							CHANNELS 3 Zrotation Yrotation Xrotation
							End Site
							{
								OFFSET -0.00579 1.75982 -0.09688
							}
						}
					}
				}
				JOINT LeftShoulder
				{
					OFFSET 0 0 0
					CHANNELS 3 Zrotation Yrotation Xrotation
					JOINT LeftArm
					{
						OFFSET 3.20537 1.11432 -0.27680
						CHANNELS 3 Zrotation Yrotation Xrotation
						JOINT LeftForeArm
						{
							OFFSET 5.05923 -0.00000 -0.00000
							CHANNELS 3 Zrotation Yrotation Xrotation
							JOINT LeftHand
							{
								OFFSET 3.51996 -0.00000 0.00000
								CHANNELS 3 Zrotation Yrotation Xrotation
								JOINT LeftFingerBase
								{
									OFFSET 0 0 0
									CHANNELS 3 Zrotation Yrotation Xrotation
									JOINT LeftHandIndex1
									{
										OFFSET 0.65238 -0.00000 0.00000
										CHANNELS 3 Zrotation Yrotation Xrotation
										End Site
										{
											OFFSET 0.52596 -0.00000 0.00000
										}
									}
								}
								JOINT LThumb
								{
									OFFSET 0 0 0
									CHANNELS 3 Zrotation Yrotation Xrotation
									End Site
									{
										OFFSET 0.53399 -0.00000 0.53399
									}
								}
							}
						}
					}
				}
				JOINT RightShoulder
				{
					OFFSET 0 0 0
					CHANNELS 3 Zrotation Yrotation Xrotation
					JOINT RightArm
					{
						OFFSET -2.96983 1.42602 -0.37449
						CHANNELS 3 Zrotation Yrotation Xrotation
						JOINT RightForeArm
						{
							OFFSET -5.40867 -0.00000 0.00000
							CHANNELS 3 Zrotation Yrotation Xrotation
							JOINT RightHand
							{
								OFFSET -3.12964 -0.00000 0.00000
								CHANNELS 3 Zrotation Yrotation Xrotation
								JOINT RightFingerBase
								{
									OFFSET 0 0 0
									CHANNELS 3 Zrotation Yrotation Xrotation
									JOINT RightHandIndex1
									{
										OFFSET -0.83271 -0.00000 0.00000
										CHANNELS 3 Zrotation Yrotation Xrotation
										End Site
										{
											OFFSET -0.67135 -0.00000 0.00000
										}
									}
								}
								JOINT RThumb
								{
									OFFSET 0 0 0
									CHANNELS 3 Zrotation Yrotation Xrotation
									End Site
									{
										OFFSET -0.68160 -0.00000 0.68160
									}
								}
							}
						}
					}
				}
			}
		}
	}
}
MOTION
Frames: 15
Frame Time: .0083333
-1.7434 16.5981 0.2468 -183.5400 -33.7480 169.5550 0.0000 0.0000 0.0000 -27.1894 -2.7680 -12.7872 7.9183 16.0589 52.2680 1.0762 -15.4861 -20.0849 0.0118 -0.7004 -1.9248 0.0000 0.0000 0.0000 13.8658 8.7705 -15.0598 -9.8339 -17.3154 58.9317 -2.1627 4.0084 -26.8626 -0.0808 1.8340 -5.0471 -4.9183 -3.1268 22.2835 1.4184 -5.4401 0.5346 6.1047 -2.3184 -11.2883 -5.6991 -9.3124 -7.1213 -0.3659 -11.9064 6.4769 0.1790 -6.0701 3.7147 -0.0000 0.0000 0.0000 -144.6317 -70.0281 106.1736 65.3213 -57.5688 -38.8021 -0.0000 0.0000 -44.8006 18.5164 47.3491 13.8380 -7.1250 0.0000 -0.0000 -42.1226 75.5969 -31.4721 -0.0000 0.0000 0.0000 12.7292 64.5982 -17.3025 -106.1703 58.9886 -73.9563 0.0000 0.0000 31.0599 10.3522 -11.7222 -2.1254 7.1250 -0.0000 -0.0000 31.9355 -39.5042 4.9271
-1.7440 16.5509 0.1846 -182.9870 -33.5918 169.0980 0.0000 0.0000 0.0000 -26.5318 -2.6992 -13.0042 8.1931 16.2594 53.2552 1.1340 -15.6077 -20.5321 0.0106 -0.6652 -1.8279 0.0000 0.0000 0.0000 14.6248 8.6792 -15.0193 -10.0382 -17.4313 59.6159 -2.2338 3.9799 -27.3253 -0.0597 1.5760 -4.3354 -4.5723 -3.1171 22.2425 1.5064 -5.3260 0.5028 5.9720 -2.2774 -11.3384 -5.7446 -9.3670 -6.5919 -0.2934 -12.0170 6.1892 0.2402 -6.1212 3.5229 -0.0000 0.0000 0.0000 -145.6595 -70.4573 106.8609 65.4177 -57.5888 -38.8834 -0.0000 0.0000 -45.2951 16.1951 47.2295 12.0354 -7.1250 0.0000 -0.0000 -44.0246 74.6299 -32.1810 -0.0000 0.0000 0.0000 11.1382 64.6861 -18.8337 -104.8526 59.1498 -72.8260 0.0000 0.0000 31.8189 10.3522 -11.7222 -2.1254 7.1250 -0.0000 -0.0000 31.9355 -39.5042 4.9271
-1.7449 16.4867 0.1387 -182.6540 -33.2566 168.8500 0.0000 0.0000 0.0000 -26.1197 -2.6449 -13.3969 8.4833 16.4635 54.2854 1.1916 -15.6444 -20.9441 0.0020 -0.2868 -0.7881 0.0000 0.0000 0.0000 15.0532 8.6814 -15.4062 -10.2841 -17.5665 60.4338 -2.2295 4.1774 -27.2632 -0.1210 2.2423 -6.1758 -4.2080 -3.0518 22.3206 1.4687 -5.1478 0.3807 5.6852 -2.1967 -11.5788 -5.6907 -9.3576 -6.2379 -0.1841 -12.0388 5.9925 0.2905 -6.1245 3.3910 0.0000 -0.0000 0.0000 -146.6861 -70.8104 107.6849 65.5332 -57.6126 -38.9809 -0.0000 0.0000 -46.0160 14.8660 46.7616 10.9447 -7.1250 0.0000 -0.0000 -43.9737 73.8344 -31.4566 0.0000 -0.0000 0.0000 9.7777 64.6246 -20.1146 -104.2441 59.2193 -72.3034 0.0000 0.0000 31.7956 10.3522 -11.7222 -2.1254 7.1250 -0.0000 -0.0000 31.9355 -39.5042 4.9271
-1.7426 16.4285 0.0795 -182.7090 -33.4255 168.6700 0.0000 0.0000 0.0000 -26.1027 -2.7692 -13.3424 8.7501 16.6442 55.2217 1.2287 -15.8915 -21.2732 0.0038 0.3979 1.0932 0.0000 0.0000 0.0000 15.0867 8.3461 -15.6307 -10.5311 -17.6979 61.2492 -2.2295 4.1710 -27.2643 -0.0540 1.4990 -4.1228 -4.3093 -3.0080 22.4905 1.3816 -5.1311 0.3285 5.6583 -2.1748 -11.7351 -5.5953 -9.3611 -6.0996 -0.1678 -12.0602 5.8783 0.2905 -6.1307 3.3194 0.0000 0.0000 0.0000 -148.2109 -71.1080 108.9590 65.7741 -57.6619 -39.1845 -0.0000 0.0000 -46.9113 13.6563 47.4426 10.1467 -7.1250 0.0000 -0.0000 -47.0072 73.8082 -33.8239 0.0000 0.0000 0.0000 8.1444 64.3603 -21.6750 -103.6622 59.2828 -71.8033 0.0000 0.0000 32.0368 10.3522 -11.7222 -2.1254 7.1250 -0.0000 -0.0000 31.9355 -39.5042 4.9271
-1.7390 16.3710 0.0181 -182.3630 -33.3855 168.2590 0.0000 0.0000 0.0000 -25.6373 -2.7334 -13.3868 9.0353 16.8304 56.2121 1.2452 -16.1871 -21.4760 0.0383 1.2628 3.4722 0.0000 0.0000 0.0000 15.5955 8.2823 -15.6655 -10.7761 -17.8238 62.0525 -2.2767 4.1321 -27.5708 -0.0781 1.8023 -4.9595 -4.2216 -2.8819 22.4468 1.4982 -4.9342 0.4654 5.6686 -2.1000 -11.5734 -5.6807 -9.4167 -6.1664 -0.0536 -12.1299 5.9947 0.3283 -6.1638 3.3900 0.0000 0.0000 0.0000 -150.4238 -71.4589 110.8770 66.1315 -57.7339 -39.4865 -0.0000 0.0000 -48.0821 12.5179 47.4806 9.2936 -7.1250 0.0000 -0.0000 -48.1412 73.4104 -34.3584 0.0000 0.0000 0.0000 5.8840 64.0331 -23.7845 -102.9320 59.3586 -71.1753 0.0000 0.0000 32.7130 10.3522 -11.7222 -2.1254 7.1250 -0.0000 -0.0000 31.9355 -39.5042 4.9271
-1.7334 16.3174 -0.0487 -181.8470 -33.3193 167.7620 0.0000 0.0000 0.0000 -24.9615 -2.6263 -13.5347 9.3340 17.0179 57.2381 1.2696 -16.4621 -21.7248 0.0804 1.8292 5.0339 0.0000 0.0000 0.0000 16.3186 8.1631 -15.5623 -11.0074 -17.9387 62.8055 -2.3569 3.8807 -28.1192 -0.1531 2.5216 -6.9494 -4.1977 -2.7963 22.1290 1.7446 -4.7929 0.7832 5.8432 -2.0727 -11.0312 -5.7923 -9.4470 -6.5376 -0.0032 -12.1402 6.2944 0.3313 -6.1717 3.5791 -0.0000 0.0000 0.0000 -152.8739 -72.0453 113.0067 66.6198 -57.8303 -39.8997 -0.0000 0.0000 -49.6003 11.4865 47.6072 8.5351 -7.1250 0.0000 -0.0000 -49.4022 73.1066 -35.0749 -0.0000 0.0000 0.0000 3.0202 63.9214 -26.3433 -102.5782 59.3937 -70.8709 0.0000 0.0000 32.8527 10.3522 -11.7222 -2.1254 7.1250 -0.0000 -0.0000 31.9355 -39.5042 4.9271
-1.7339 16.2633 -0.1041 -181.7450 -33.4315 167.6130 0.0000 0.0000 0.0000 -24.7611 -2.7047 -13.7985 9.6499 17.2083 58.3119 1.3048 -16.7659 -22.0525 0.1368 2.3841 6.5683 0.0000 0.0000 0.0000 16.4581 7.8206 -15.7176 -11.2475 -18.0541 63.5828 -2.4363 4.0555 -28.5780 -0.1540 2.5285 -6.9687 -4.1504 -2.8356 22.2273 1.6928 -4.8354 0.6666 5.7861 -2.0807 -11.2215 -5.9977 -9.7368 -6.1495 -0.0540 -12.5361 6.1653 0.3476 -6.3756 3.4834 -0.0000 -0.0000 0.0000 -153.8100 -72.2987 113.6739 66.8671 -57.8782 -40.1090 -0.0000 0.0000 -51.3732 11.1723 47.9254 8.3402 -7.1250 0.0000 -0.0000 -50.5545 73.1746 -36.0622 -0.0000 -0.0000 0.0000 1.8486 63.8264 -27.3237 -102.1986 59.4302 -70.5441 0.0000 0.0000 33.0853 10.3522 -11.7222 -2.1254 7.1250 -0.0000 -0.0000 31.9355 -39.5042 4.9271
-1.7313 16.1983 -0.1502 -181.5150 -33.4338 167.3800 0.0000 0.0000 0.0000 -24.4497 -2.8132 -14.1126 9.9853 17.4016 59.4391 1.3351 -16.9579 -22.3100 0.1983 2.8678 7.9110 0.0000 0.0000 0.0000 16.7311 7.5555 -15.9631 -11.5004 -18.1714 64.3961 -2.5061 4.0003 -29.0129 -0.1794 2.7278 -7.5219 -3.8722 -2.8598 22.4714 1.5673 -4.8071 0.4426 5.5129 -2.0538 -11.6501 -5.7476 -9.7464 -5.5556 -0.1188 -12.6134 6.2821 0.3124 -6.4166 3.3885 0.0000 0.0000 0.0000 -153.9674 -72.3559 113.7499 67.1226 -57.9270 -40.3255 -0.0000 0.0000 -53.3467 11.0175 48.1755 8.2553 -7.1250 0.0000 -0.0000 -51.3887 73.2584 -36.8165 0.0000 0.0000 0.0000 1.3274 63.6178 -27.7172 -102.0000 59.4488 -70.3730 0.0000 0.0000 33.2708 10.3522 -11.7222 -2.1254 7.1250 -0.0000 -0.0000 31.9355 -39.5042 4.9271
-1.7250 16.1314 -0.2019 -181.1360 -33.3446 166.9750 0.0000 0.0000 0.0000 -23.9281 -2.7737 -14.3575 10.3095 17.5803 60.5178 1.4023 -16.9711 -22.7467 0.1463 2.4648 6.7922 0.0000 0.0000 0.0000 17.2191 7.4548 -16.0750 -11.7588 -18.2868 65.2222 -2.5670 4.0406 -29.3721 -0.1680 2.6402 -7.2786 -3.5627 -2.7914 22.6691 1.4728 -4.6458 0.2856 5.2070 -1.9755 -11.9910 -5.4163 -9.7499 -4.4029 0.0059 -12.7264 5.7812 0.3749 -6.4597 2.9853 -0.0000 -0.0000 0.0000 -154.0771 -72.2709 113.9314 67.6570 -58.0270 -40.7786 -0.0000 0.0000 -55.4188 10.4565 48.3486 7.8515 -7.1250 0.0000 -0.0000 -52.3444 73.1478 -37.4822 -0.0000 -0.0000 0.0000 0.9379 63.1876 -28.0652 -101.6858 59.4777 -70.1024 0.0000 0.0000 33.4601 10.3522 -11.7222 -2.1254 7.1250 -0.0000 -0.0000 31.9355 -39.5042 4.9271
-1.7251 16.0721 -0.2551 -181.0330 -33.3482 166.7960 0.0000 0.0000 0.0000 -23.6733 -2.6587 -14.5655 10.5946 17.7309 61.4577 1.4922 -17.0148 -23.3293 0.0894 1.9285 5.3081 0.0000 0.0000 0.0000 17.3752 7.4153 -16.2168 -12.0138 -18.3965 66.0324 -2.6370 4.4135 -29.7218 -0.1125 2.1625 -5.9549 -3.3566 -2.6620 22.9969 1.3393 -4.4314 -0.0179 4.9148 -1.8524 -12.5739 -5.1912 -9.8471 -3.1112 0.0706 -12.9515 5.0517 0.4456 -6.5614 2.4943 0.0000 0.0000 0.0000 -154.4039 -71.9373 114.2937 68.2779 -58.1398 -41.3056 -0.0000 0.0000 -57.4895 10.2442 48.6459 7.7256 -7.1250 0.0000 -0.0000 -53.3660 73.2303 -38.3982 0.0000 0.0000 0.0000 0.8919 62.4705 -27.9551 -101.1662 59.5236 -69.6547 0.0000 0.0000 33.7249 10.3522 -11.7222 -2.1254 7.1250 -0.0000 -0.0000 31.9355 -39.5042 4.9271
-1.7317 16.0144 -0.2953 -181.3160 -33.4892 166.9970 0.0000 0.0000 0.0000 -23.8733 -2.7484 -14.8922 10.8904 17.8810 62.4250 1.5222 -17.2403 -23.5830 0.1019 2.0586 5.6675 0.0000 0.0000 0.0000 17.0533 7.2974 -16.6376 -12.2968 -18.5133 66.9265 -2.7323 4.8822 -30.2024 -0.0725 1.7371 -4.7797 -3.5488 -2.5661 22.7925 1.2460 -4.3550 -0.0384 4.8792 -1.8102 -12.4842 -5.4978 -9.9090 -3.2611 0.3135 -13.0251 5.3351 0.5459 -6.6004 2.6625 -0.0000 0.0000 0.0000 -155.6837 -71.9034 115.4297 68.2734 -58.1390 -41.3018 -0.0000 0.0000 -58.8275 10.0956 48.7111 7.6200 -7.1250 0.0000 -0.0000 -53.6733 73.2104 -38.6301 -0.0000 0.0000 0.0000 -0.2866 62.0453 -28.9710 -100.7765 59.5566 -69.3188 0.0000 0.0000 34.2035 -39.7495 12.5438 -10.2388 7.1250 -0.0000 -0.0000 -8.4527 -13.9646 -6.2325
-1.7451 15.9620 -0.3244 -181.7280 -33.7386 167.3490 0.0000 0.0000 0.0000 -24.3116 -3.0394 -15.3162 11.2247 18.0433 63.5093 1.5788 -17.1000 -23.8929 0.0881 1.9146 5.2696 0.0000 0.0000 0.0000 16.5475 7.0479 -17.1401 -12.5148 -18.5999 67.6115 -2.7708 5.1059 -30.3897 -0.0615 1.5999 -4.4011 -3.1230 -2.7720 23.6866 0.8120 -4.5737 -0.7069 4.3187 -1.8696 -13.8197 -5.6403 -9.9885 -4.1427 -0.0104 -13.0778 6.9525 0.3592 -6.6647 3.3687 0.0000 -0.0000 0.0000 -154.1245 -71.8200 114.0093 68.7413 -58.2215 -41.6993 -0.0000 0.0000 -59.3151 10.5724 49.1662 8.0381 -7.1250 0.0000 -0.0000 -54.6306 73.6217 -39.8367 0.0000 -0.0000 0.0000 0.6624 61.8749 -27.8767 -100.7733 59.5569 -69.3161 0.0000 0.0000 34.5283 -39.4130 12.7812 -10.3040 7.1250 -0.0000 -0.0000 -8.1903 -13.7363 -6.0749
-1.7296 15.8621 -0.3952 -180.9150 -33.6536 166.5930 0.0000 0.0000 0.0000 -23.3148 -2.8670 -15.6849 11.7004 18.2611 65.0360 1.7252 -16.5493 -24.6416 0.0226 0.9710 2.6690 0.0000 0.0000 0.0000 17.4400 6.4453 -17.3487 -12.7506 -18.6903 68.3490 -2.8022 5.0589 -30.5775 -0.0700 1.7064 -4.6949 -2.7335 -2.7081 23.9042 0.9536 -4.3651 -0.8089 4.2099 -1.7815 -14.0988 -5.5263 -10.1906 -4.4247 -0.4528 -13.3280 7.7413 0.1427 -6.8175 3.6605 0.0000 0.0000 0.0000 -153.9734 -71.6767 114.0552 69.5425 -58.3580 -42.3809 -0.0000 0.0000 -59.1280 10.9014 49.7471 8.3620 -7.1250 0.0000 -0.0000 -56.1574 74.0321 -41.5332 0.0000 0.0000 0.0000 0.4506 61.3918 -27.7641 -100.9230 59.5443 -69.4452 0.0000 0.0000 34.8256 -39.2981 12.7801 -10.2620 7.1250 -0.0000 -0.0000 -8.1145 -13.7606 -6.0133
-1.6853 15.8164 -0.5210 -176.4000 -32.3386 162.8190 0.0000 0.0000 0.0000 -18.0060 -1.4078 -15.3094 12.2502 18.4944 66.7798 1.8581 -16.6490 -25.4633 0.0042 -0.4209 -1.1566 0.0000 0.0000 0.0000 23.1586 6.8609 -15.3466 -12.7454 -18.6883 68.3328 -2.8349 2.8330 -31.1830 -0.1371 2.3862 -6.5742 -0.1386 -2.7567 24.6904 2.1809 -3.5897 -0.4227 3.9087 -1.5900 -14.2255 -5.5224 -10.2413 -4.6925 -0.7017 -13.3774 8.3712 0.0196 -6.8644 3.9161 -0.0000 -0.0000 0.0000 -153.8609 -71.7057 114.0729 70.1879 -58.4636 -42.9307 -0.0000 0.0000 -58.6025 11.2902 50.1526 8.7142 -7.1250 0.0000 -0.0000 -57.1658 74.3699 -42.7353 -0.0000 -0.0000 0.0000 -0.1539 61.1501 -28.0112 -101.2878 59.5130 -69.7595 0.0000 0.0000 35.2393 -38.9226 12.7406 -10.0982 7.1250 -0.0000 -0.0000 -7.8727 -13.8839 -5.8098
-1.6640 15.7541 -0.5938 -174.6430 -31.6792 161.2440 0.0000 0.0000 0.0000 -15.6727 -0.6658 -15.3914 12.7472 18.6890 68.3385 1.9448 -16.7744 -26.0026 0.0493 -1.4334 -3.9423 0.0000 0.0000 0.0000 25.5293 6.9631 -14.6282 -12.8774 -18.7375 68.7444 -2.8328 1.6316 -31.4595 -0.2333 3.1086 -8.5812 0.8374 -2.8033 25.1053 2.7059 -3.3496 -0.1064 3.8850 -1.5557 -14.1217 -5.7821 -10.1161 -6.0418 -0.5302 -13.1257 9.4693 0.0039 -6.7493 4.6106 0.0000 0.0000 0.0000 -154.7928 -72.2693 115.2209 70.8243 -58.5640 -43.4734 -0.0000 0.0000 -58.3253 11.9703 50.3625 9.2729 -7.1250 0.0000 -0.0000 -57.3810 74.7236 -43.2829 0.0000 0.0000 0.0000 -1.7166 61.1478 -29.2350 -101.5792 59.4873 -70.0106 0.0000 0.0000 35.2757 -38.2008 12.9918 -10.0326 7.1250 -0.0000 -0.0000 -7.3538 -13.7150 -5.4466
